<?xml version="1.0" encoding="utf-8"?>
<!-- Generator: Adobe Illustrator 25.1.0, SVG Export Plug-In . SVG Version: 6.00 Build 0)  -->
<svg version="1.1"
	 id="Capa_1" inkscape:version="0.92.5 (2060ec1f9f, 2020-04-08)" sodipodi:docname="coronavirus-centered.svg" xmlns:cc="http://creativecommons.org/ns#" xmlns:dc="http://purl.org/dc/elements/1.1/" xmlns:inkscape="http://www.inkscape.org/namespaces/inkscape" xmlns:rdf="http://www.w3.org/1999/02/22-rdf-syntax-ns#" xmlns:sodipodi="http://sodipodi.sourceforge.net/DTD/sodipodi-0.dtd" xmlns:svg="http://www.w3.org/2000/svg"
	 xmlns="http://www.w3.org/2000/svg" xmlns:xlink="http://www.w3.org/1999/xlink" x="0px" y="0px" viewBox="0 0 500 500"
	 style="enable-background:new 0 0 500 500;" xml:space="preserve">
<style type="text/css">
	.st0{fill:#00AF29;}
	.st1{fill:#00601D;}
	.st2{fill:#00ED2D;}
	.st3{fill:#007F21;}
</style>
<sodipodi:namedview  bordercolor="#666666" borderopacity="1" fit-margin-bottom="0" fit-margin-left="0" fit-margin-right="0" fit-margin-top="0" gridtolerance="10" guidetolerance="10" id="namedview48" inkscape:current-layer="Capa_1" inkscape:cx="506" inkscape:cy="506" inkscape:pageopacity="0" inkscape:pageshadow="2" inkscape:window-height="1018" inkscape:window-maximized="1" inkscape:window-width="1920" inkscape:window-x="0" inkscape:window-y="0" inkscape:zoom="0.4609375" objecttolerance="10" pagecolor="#ffffff" showgrid="false">
	</sodipodi:namedview>
<g id="g45" transform="matrix(0.97656327,0,0,0.99633222,-1.9682335e-4,-4.9028867)">
	<g id="g41">
		<g id="XMLID_427_">
			<g id="g4">
				<path id="path2" inkscape:connector-curvature="0" class="st0" d="M499,258.9c8.7,1.7,14.4,10.1,12.7,18.8l-6.3,32.3
					c-1.8,9-10.6,14.7-19.6,12.5c-8.4-2.1-13.5-10.6-11.8-19.1l0.2-0.9l-41.8,1.9c-1.3,0.1-2.4,0.9-2.7,2.1
					c-4.1,12.3-9.5,24.1-16,35.1c-0.7,1.1-0.6,2.5,0.3,3.5l18.5,22c3.7-3.5,8.5-5.3,13.3-5.3c4.1,0,8.2,1.3,11.7,4
					c8.5,6.5,10.1,18.6,3.6,27.1l-5.4,7c-6.3,8.2-18,10.4-26.6,4.6c-7.4-5.1-10-14.2-7.4-22.1L395,370.7c-1.2-0.5-2.6-0.2-3.5,0.8
					c-12.3,13.6-26.7,25.2-42.6,34.5c-1.1,0.6-1.7,1.9-1.5,3.1l6.8,41.6l5.9-2.4c8.5-3.4,18.1,0.9,21.1,9.7
					c2.8,8.2-1.6,17.1-9.6,20.3l-30.2,12.1c-8.5,3.4-18.1-0.9-21.1-9.7c-2.8-8.2,1.6-17.1,9.6-20.3l0.8-0.3l-24.3-34.1
					c-0.7-1-2-1.5-3.3-1.2c-14.5,3.8-29.8,5.8-45.5,5.8c-12.4,0-24.6-1.3-36.3-3.7c-1.2-0.2-2.5,0.3-3.2,1.3l-24.4,38.2l0.9,0.3
					c7.9,2.9,12.8,10.4,12.8,18.3c0,2.2-0.4,4.5-1.2,6.7c0,11.4-8.8,17.6-19.5,13.7l-29.9-10.9c-10-3.6-15.2-14.6-11.8-24.7
					c3.6-10.4,15.4-15.6,25.6-11.8l0.7,0.2l5-44.8c0.1-1.3-0.5-2.5-1.6-3c-19-9.8-36-22.8-50.3-38.4c-0.9-0.9-2.2-1.2-3.4-0.8
					l-36.5,15c4.1,7.7,1.8,17.5-5.7,22.5c-7.9,5.2-18.5,2.8-23.9-5l-9.4-13.5c-5.2-7.5-4-18,3.2-23.7c7.7-6,18.6-4.5,24.4,3.1
					l25.7-29.1c0.9-1,1-2.4,0.4-3.5c-10.6-19-17.8-40.2-20.9-62.6c-0.2-1.3-1.1-2.3-2.3-2.6l-41.1-9.5l0,4.8c0,4.8-2,9.2-5.2,12.3
					c-3.2,3.2-7.6,5.1-12.4,5.1c-9.6,0-17.4-7.8-17.3-17.4l0.3-29.9c0.1-9.8,8.2-18,17.9-17.7c9.5,0.2,17,8,17,17.5l40.8-9.6
					c1.2-0.3,2.2-1.3,2.3-2.6c3.2-23.7,11-46,22.5-65.9c0.6-1.1,0.5-2.5-0.3-3.5L81,133l-1.7,2.2c-5.2,6.9-15.3,8.1-22,2.5
					c-6.3-5.3-7.1-14.8-2.1-21.3l13-17.1c3-4,7.6-6.1,12.2-6.1c3.2,0,6.5,1,9.2,3.1c6.4,4.8,7.9,13.7,3.7,20.4l27.2,11.8
					c1.2,0.5,2.6,0.2,3.5-0.8c12.8-14.1,27.9-26.1,44.6-35.6c1.1-0.6,1.7-1.9,1.5-3.1l-6.3-41.7l-5.9,2.3c-8.5,3.3-18.1-1.2-21-10
					c-2.7-8.2,1.8-17.1,9.9-20.2l30.3-11.7c8.5-3.3,18.1,1.2,21,10c2.7,8.2-1.8,17.1-9.9,20.2l-0.8,0.3l23.9,34.4
					c0.7,1,2,1.5,3.2,1.2c13.9-3.4,28.3-5.2,43.2-5.2h0c1.3,0,2.5-0.8,2.9-2l7.9-22.1c-9.2-2.9-15.3-11.9-14.1-21.8
					c1.3-11.2,12-19.1,23.2-17.7l10.9,1.4c11.1,1.4,19.4,11.3,18.2,22.4c-0.9,8.6-7.2,15.4-15.1,17.4l2.7,24
					c0.1,1.3,1.1,2.3,2.4,2.6c18.4,4,35.7,10.9,51.5,20c1.1,0.6,2.5,0.5,3.4-0.3L384.3,66l-5-4c-7.2-5.7-8.2-16.2-2.1-23.1
					c5.7-6.5,15.6-7.1,22.4-1.7l25.4,20.2c7.2,5.7,8.2,16.2,2.1,23.1c-5.7,6.5-15.6,7.1-22.4,1.7l-0.7-0.5l-17.5,38.1
					c-0.5,1.1-0.3,2.5,0.6,3.4c12.3,12.6,22.9,27.1,31.1,42.9c0.6,1.1,1.8,1.8,3.1,1.6l24.9-3.5c-3.7-10.2,1.8-21.5,12.2-24.9
					c9.9-3.3,20.7,2.3,24.3,12.1l5.7,15.4c3.6,9.7-0.7,20.8-10.2,25c-9.1,4-19.4,0.4-24.3-7.7l-20.6,14c-1.1,0.7-1.6,2.1-1.2,3.3
					c4.2,15.4,6.5,31.6,6.5,48.3c0,2.8-0.1,5.6-0.2,8.3c-0.1,1.3,0.7,2.4,1.8,2.9l38.7,16.9l1.2-6.2
					C481.9,262.9,490.3,257.2,499,258.9L499,258.9z"/>
			</g>
		</g>
		<ellipse id="ellipse7" class="st1" cx="336.3" cy="160.5" rx="25.6" ry="21.4"/>
		<ellipse id="circle9" class="st1" cx="244" cy="293.6" rx="27.3" ry="27.8"/>
		<ellipse id="circle11" class="st2" cx="352.9" cy="279.1" rx="19.5" ry="19.9"/>
		<ellipse id="circle13" class="st2" cx="279" cy="376.7" rx="19" ry="19.4"/>
		<g id="g17">
			<path id="path15" inkscape:connector-curvature="0" class="st3" d="M147.6,241c0-69.6,33.2-131.4,84.6-170.6
				c-6,0.8-11.9,2-17.7,3.4c-1.2,0.3-2.5-0.2-3.2-1.2l-23.9-34.4l0.8-0.3c8.1-3.1,12.6-12,9.9-20.2c-2.9-8.8-12.5-13.2-21-10
				l-30.3,11.7c-8.1,3.1-12.6,12-9.9,20.2c2.9,8.8,12.5,13.2,21,10l5.9-2.3L170,89c0.2,1.2-0.4,2.5-1.5,3.1
				c-16.7,9.5-31.7,21.5-44.6,35.6c-0.9,1-2.3,1.3-3.5,0.8l-27.2-11.8c4.2-6.7,2.7-15.6-3.7-20.4c-2.8-2.1-6-3.1-9.2-3.1
				c-4.6,0-9.2,2.1-12.2,6.1l-13,17.1c-5,6.6-4.2,16.1,2.1,21.3c6.8,5.6,16.8,4.4,22-2.5L81,133l19.5,22.9c0.8,1,0.9,2.4,0.3,3.5
				c-11.5,19.9-19.3,42.2-22.5,65.9c-0.2,1.3-1.1,2.3-2.3,2.6l-40.8,9.6c0.1-9.5-7.5-17.3-17-17.5c-9.8-0.3-17.8,8-17.9,17.7
				L0,267.5c-0.1,9.6,7.7,17.4,17.3,17.4c4.8,0,9.2-1.9,12.4-5.1c3.2-3.1,5.2-7.5,5.2-12.3l0-4.8l41.1,9.5c1.2,0.3,2.1,1.3,2.3,2.6
				c3.1,22.5,10.3,43.6,20.9,62.6c0.6,1.1,0.5,2.5-0.4,3.5l-25.7,29.1c-5.7-7.6-16.7-9.2-24.4-3.1c-7.2,5.7-8.4,16.2-3.2,23.7
				l9.4,13.5c5.4,7.7,16,10.1,23.9,5c7.5-5,9.9-14.7,5.7-22.5l36.5-15c1.2-0.5,2.5-0.2,3.4,0.8c14.3,15.6,31.3,28.6,50.3,38.4
				c1.1,0.6,1.8,1.8,1.6,3l-5,44.8l-0.7-0.2c-10.3-3.7-22.1,1.5-25.6,11.8c-3.5,10,1.8,21,11.8,24.7l29.9,10.9
				c10.7,3.9,19.5-2.2,19.5-13.7c0.8-2.2,1.2-4.5,1.2-6.7c0-8-4.9-15.5-12.8-18.3l-0.9-0.3l24.4-38.2c0.7-1.1,2-1.6,3.2-1.3
				c11.7,2.4,23.9,3.7,36.3,3.7c1.5,0,3,0,4.4-0.1C194,394.7,147.6,323.3,147.6,241z"/>
		</g>
		<ellipse id="circle19" class="st1" cx="157.4" cy="330.2" rx="19.8" ry="20.2"/>
		<g id="g23">
			<path id="path21" inkscape:connector-curvature="0" class="st2" d="M307.3,241h-6.8c-4.3,0-7.7-3.5-7.7-7.7
				c0-4.3,3.5-7.7,7.7-7.7h6.8c4.3,0,7.7,3.5,7.7,7.7C315,237.5,311.6,241,307.3,241z"/>
		</g>
		<g id="g27">
			<path id="path25" inkscape:connector-curvature="0" class="st2" d="M216.1,376.3h-7c-4.3,0-7.7-3.5-7.7-7.7s3.5-7.7,7.7-7.7h7
				c4.3,0,7.7,3.5,7.7,7.7S220.4,376.3,216.1,376.3z"/>
		</g>
		<g id="g31">
			<path id="path29" inkscape:connector-curvature="0" class="st1" d="M143.9,263.6h-6.8c-4.3,0-7.7-3.5-7.7-7.7s3.5-7.7,7.7-7.7
				h6.8c4.3,0,7.7,3.5,7.7,7.7S148.2,263.6,143.9,263.6z"/>
		</g>
		<g id="g35">
			<path id="path33" inkscape:connector-curvature="0" class="st2" d="M281.4,128.1H272c-4.3,0-7.7-3.5-7.7-7.7
				c0-4.3,3.5-7.7,7.7-7.7h9.4c4.3,0,7.7,3.5,7.7,7.7C289.1,124.7,285.7,128.1,281.4,128.1z"/>
		</g>
		<g id="g39">
			<path id="path37" inkscape:connector-curvature="0" class="st1" d="M343.3,351.1h-10.4c-4.3,0-7.7-3.5-7.7-7.7
				c0-4.3,3.5-7.7,7.7-7.7h10.4c4.3,0,7.7,3.5,7.7,7.7C351,347.7,347.6,351.1,343.3,351.1L343.3,351.1z"/>
		</g>
	</g>
	
		<ellipse id="ellipse43" transform="matrix(0.7494 -0.6621 0.6621 0.7494 -70.8863 176.4347)" class="st1" cx="197.7" cy="181.9" rx="53.7" ry="44.2"/>
</g>
</svg>
