<?xml version="1.0" encoding="UTF-8" standalone="no"?>
<svg
   xmlns:dc="http://purl.org/dc/elements/1.1/"
   xmlns:cc="http://creativecommons.org/ns#"
   xmlns:rdf="http://www.w3.org/1999/02/22-rdf-syntax-ns#"
   xmlns:svg="http://www.w3.org/2000/svg"
   xmlns="http://www.w3.org/2000/svg"
   xmlns:sodipodi="http://sodipodi.sourceforge.net/DTD/sodipodi-0.dtd"
   xmlns:inkscape="http://www.inkscape.org/namespaces/inkscape"
   id="Capa_1"
   enable-background="new 0 0 495.974 495.974"
   height="500"
   viewBox="0 0 484.34961 484.34961"
   width="500"
   version="1.1"
   sodipodi:docname="coronavirus-centered.svg"
   inkscape:version="0.92.5 (2060ec1f9f, 2020-04-08)">
  <metadata
     id="metadata52">
    <rdf:RDF>
      <cc:Work
         rdf:about="">
        <dc:format>image/svg+xml</dc:format>
        <dc:type
           rdf:resource="http://purl.org/dc/dcmitype/StillImage" />
        <dc:title></dc:title>
      </cc:Work>
    </rdf:RDF>
  </metadata>
  <defs
     id="defs50" />
  <sodipodi:namedview
     pagecolor="#ffffff"
     bordercolor="#666666"
     borderopacity="1"
     objecttolerance="10"
     gridtolerance="10"
     guidetolerance="10"
     inkscape:pageopacity="0"
     inkscape:pageshadow="2"
     inkscape:window-width="1920"
     inkscape:window-height="1018"
     id="namedview48"
     showgrid="false"
     inkscape:zoom="0.4609375"
     inkscape:cx="506"
     inkscape:cy="506"
     inkscape:window-x="0"
     inkscape:window-y="0"
     inkscape:window-maximized="1"
     inkscape:current-layer="Capa_1"
     fit-margin-top="0"
     fit-margin-left="0"
     fit-margin-right="0"
     fit-margin-bottom="0" />
  <g
     id="g45"
     transform="matrix(0.97656327,0,0,0.99633222,-1.9682335e-4,-4.9028867)">
    <g
       id="g41">
      <g
         id="XMLID_427_">
        <g
           id="g4">
          <path
             d="m 483.411,250.977 c 8.43,1.66 13.92,9.83 12.27,18.25 l -6.15,31.32 c -1.7,8.67 -10.3,14.23 -18.98,12.1 -8.13,-1.99 -13.06,-10.3 -11.45,-18.51 l 0.17,-0.84 -40.54,1.85 c -1.22,0.05 -2.28,0.86 -2.66,2.03 -3.96,11.96 -9.17,23.36 -15.48,34.02 -0.64,1.08 -0.54,2.45 0.27,3.41 l 17.93,21.3 c 3.56,-3.39 8.21,-5.15 12.91,-5.15 3.96,0 7.96,1.25 11.35,3.85 8.21,6.28 9.77,18.03 3.49,26.25 l -5.2,6.79 c -6.1,7.98 -17.47,10.12 -25.75,4.41 -7.13,-4.91 -9.71,-13.74 -7.13,-21.41 l -25.83,-11.35 c -1.17,-0.51 -2.52,-0.21 -3.37,0.73 -11.96,13.13 -25.88,24.43 -41.3,33.45 -1.06,0.62 -1.63,1.82 -1.43,3.03 l 6.61,40.32 5.72,-2.29 c 8.21,-3.28 17.55,0.92 20.48,9.37 2.74,7.91 -1.56,16.56 -9.33,19.66 l -29.23,11.7 c -8.2,3.28 -17.54,-0.92 -20.47,-9.37 -2.74,-7.91 1.56,-16.56 9.33,-19.67 l 0.79,-0.31 -23.58,-33.04 c -0.71,-1 -1.96,-1.44 -3.15,-1.13 -14.09,3.65 -28.87,5.61 -44.11,5.61 -12.06,0 -23.82,-1.23 -35.19,-3.55 -1.2,-0.24 -2.43,0.27 -3.09,1.3 l -23.59,37.01 0.83,0.3 c 7.68,2.8 12.44,10.05 12.44,17.77 0,2.16 -0.37,4.35 -1.15,6.49 0,11.07 -8.51,17.03 -18.91,13.23 l -28.99,-10.57 c -9.7,-3.53 -14.76,-14.18 -11.41,-23.91 3.44,-10.03 14.87,-15.09 24.83,-11.46 l 0.67,0.24 4.8,-43.37 c 0.14,-1.22 -0.5,-2.38 -1.59,-2.95 -18.36,-9.48 -34.83,-22.11 -48.7,-37.18 -0.84,-0.91 -2.15,-1.21 -3.29,-0.74 l -35.38,14.51 c 4,7.48 1.75,16.96 -5.55,21.76 -7.62,5.01 -17.91,2.68 -23.11,-4.8 l -9.06,-13.05 c -5.07,-7.29 -3.89,-17.45 3.09,-22.95 7.44,-5.86 18.05,-4.34 23.62,3.03 l 24.92,-28.16 c 0.83,-0.94 0.97,-2.3 0.36,-3.39 -10.23,-18.44 -17.23,-38.92 -20.24,-60.67 -0.17,-1.22 -1.06,-2.21 -2.25,-2.48 l -39.82,-9.2 -0.04,4.67 c -0.04,4.67 -1.96,8.9 -5.05,11.95 -3.08,3.06 -7.32,4.94 -12,4.94 -9.3,0 -16.83,-7.59 -16.74,-16.89 l 0.26,-28.93 c 0.08,-9.46 7.9,-17.43 17.35,-17.18 9.17,0.24 16.49,7.78 16.44,16.98 l 39.53,-9.27 c 1.2,-0.28 2.09,-1.27 2.25,-2.49 3.1,-23 10.67,-44.59 21.8,-63.87 0.62,-1.08 0.51,-2.43 -0.3,-3.39 l -18.85,-22.14 -1.64,2.16 c -5.08,6.72 -14.78,7.89 -21.33,2.44 -6.14,-5.12 -6.89,-14.3 -2.07,-20.67 l 12.56,-16.6 c 2.92,-3.85 7.35,-5.88 11.84,-5.88 3.11,0 6.25,0.98 8.93,3 6.21,4.69 7.67,13.31 3.57,19.77 l 26.36,11.4 c 1.16,0.5 2.5,0.2 3.36,-0.73 12.44,-13.64 27.01,-25.3 43.19,-34.47 1.06,-0.61 1.65,-1.8 1.47,-3.01 l -6.07,-40.41 -5.76,2.22 c -8.24,3.17 -17.53,-1.16 -20.34,-9.64 -2.64,-7.95 1.78,-16.54 9.59,-19.54 l 29.38,-11.3 c 8.25,-3.17 17.53,1.15 20.34,9.64 2.64,7.94 -1.77,16.53 -9.59,19.54 l -0.79,0.3 23.12,33.34 c 0.7,1.01 1.94,1.47 3.13,1.18 13.42,-3.29 27.43,-5.03 41.86,-5.03 h 0.02 c 1.26,0 2.39,-0.77 2.81,-1.96 l 7.66,-21.42 c -8.87,-2.78 -14.78,-11.53 -13.65,-21.07 1.29,-10.81 11.64,-18.49 22.45,-17.13 l 10.52,1.32 c 10.72,1.35 18.76,10.95 17.59,21.7 -0.92,8.37 -6.94,14.89 -14.58,16.89 l 2.66,23.22 c 0.14,1.25 1.07,2.27 2.31,2.54 17.78,3.91 34.55,10.52 49.85,19.37 1.07,0.61 2.39,0.52 3.34,-0.26 l 31.73,-25.75 -4.82,-3.83 c -6.93,-5.5 -7.91,-15.69 -2.03,-22.42 5.5,-6.31 15.15,-6.87 21.7,-1.66 l 24.65,19.57 c 6.93,5.49 7.91,15.69 2.03,22.42 -5.5,6.3 -15.15,6.86 -21.7,1.66 l -0.67,-0.53 -16.99,36.89 c -0.52,1.11 -0.28,2.42 0.58,3.3 11.96,12.25 22.14,26.25 30.12,41.57 0.58,1.11 1.79,1.74 3.03,1.57 l 24.09,-3.37 c -3.54,-9.88 1.71,-20.83 11.81,-24.14 9.63,-3.16 20.01,2.19 23.55,11.69 l 5.55,14.88 c 3.5,9.41 -0.7,20.18 -9.9,24.18 -8.82,3.83 -18.77,0.37 -23.51,-7.45 l -19.99,13.56 c -1.05,0.71 -1.52,2.01 -1.18,3.23 4.11,14.9 6.31,30.58 6.31,46.78 0,2.71 -0.06,5.4 -0.19,8.07 -0.05,1.23 0.64,2.36 1.76,2.85 l 37.48,16.37 1.18,-6.05 c 1.66,-8.43 9.83,-13.92 18.25,-12.27 z"
             id="path2"
             inkscape:connector-curvature="0"
             style="fill:#f79595" />
        </g>
      </g>
      <ellipse
         cx="325.73099"
         cy="155.677"
         rx="24.756001"
         ry="20.698999"
         id="ellipse7"
         style="fill:#ee6161" />
      <circle
         cx="236.394"
         cy="284.578"
         r="27.059"
         id="circle9"
         style="fill:#ee6161" />
      <circle
         cx="341.85101"
         cy="270.48099"
         r="19.374001"
         id="circle11"
         style="fill:#f9b1b1" />
      <circle
         cx="270.29901"
         cy="365.02899"
         r="18.836"
         id="circle13"
         style="fill:#f9b1b1" />
      <g
         id="g17">
        <path
           d="m 142.955,233.609 c 0,-67.408 32.157,-127.319 81.946,-165.228 -5.813,0.82 -11.552,1.928 -17.17,3.306 -1.19,0.29 -2.43,-0.17 -3.13,-1.18 l -23.12,-33.34 0.79,-0.3 c 7.82,-3.01 12.23,-11.6 9.59,-19.54 -2.81,-8.49 -12.09,-12.81 -20.34,-9.64 l -29.38,11.3 c -7.81,3 -12.23,11.59 -9.59,19.54 2.81,8.48 12.1,12.81 20.34,9.64 l 5.76,-2.22 6.07,40.41 c 0.18,1.21 -0.41,2.4 -1.47,3.01 -16.18,9.17 -30.75,20.83 -43.19,34.47 -0.86,0.93 -2.2,1.23 -3.36,0.73 l -26.36,-11.4 c 4.1,-6.46 2.64,-15.08 -3.57,-19.77 -2.68,-2.02 -5.82,-3 -8.93,-3 -4.49,0 -8.92,2.03 -11.84,5.88 l -12.56,16.6 c -4.82,6.37 -4.07,15.55 2.07,20.67 6.55,5.45 16.25,4.28 21.33,-2.44 l 1.64,-2.16 18.85,22.14 c 0.81,0.96 0.92,2.31 0.3,3.39 -11.13,19.28 -18.7,40.87 -21.8,63.87 -0.16,1.22 -1.05,2.21 -2.25,2.49 l -39.53,9.27 c 0.05,-9.2 -7.27,-16.74 -16.44,-16.98 -9.45,-0.25 -17.27,7.72 -17.35,17.18 l -0.26,28.93 c -0.09,9.3 7.44,16.89 16.74,16.89 4.68,0 8.92,-1.88 12,-4.94 3.09,-3.05 5.01,-7.28 5.05,-11.95 l 0.04,-4.67 39.82,9.2 c 1.19,0.27 2.08,1.26 2.25,2.48 3.01,21.75 10.01,42.23 20.24,60.67 0.61,1.09 0.47,2.45 -0.36,3.39 l -24.92,28.16 c -5.57,-7.37 -16.18,-8.89 -23.62,-3.03 -6.98,5.5 -8.16,15.66 -3.09,22.95 l 9.06,13.05 c 5.2,7.48 15.49,9.81 23.11,4.8 7.3,-4.8 9.55,-14.28 5.55,-21.76 l 35.38,-14.51 c 1.14,-0.47 2.45,-0.17 3.29,0.74 13.87,15.07 30.34,27.7 48.7,37.18 1.09,0.57 1.73,1.73 1.59,2.95 l -4.8,43.37 -0.67,-0.24 c -9.96,-3.63 -21.39,1.43 -24.83,11.46 -3.35,9.73 1.71,20.38 11.41,23.91 l 28.99,10.57 c 10.4,3.8 18.91,-2.16 18.91,-13.23 0.78,-2.14 1.15,-4.33 1.15,-6.49 0,-7.72 -4.76,-14.97 -12.44,-17.77 l -0.83,-0.3 23.59,-37.01 c 0.66,-1.03 1.89,-1.54 3.09,-1.3 11.37,2.32 23.13,3.55 35.19,3.55 1.419,0 2.861,-0.018 4.272,-0.051 C 187.936,382.541 142.955,313.321 142.955,233.609 Z"
           id="path15"
           inkscape:connector-curvature="0"
           style="fill:#f37c7c" />
      </g>
      <circle
         cx="152.438"
         cy="319.97198"
         r="19.622"
         id="circle19"
         style="fill:#ee6161" />
      <g
         id="g23">
        <path
           d="m 297.66,233.609 h -6.63 c -4.143,0 -7.5,-3.358 -7.5,-7.5 0,-4.142 3.357,-7.5 7.5,-7.5 h 6.63 c 4.143,0 7.5,3.358 7.5,7.5 0,4.142 -3.357,7.5 -7.5,7.5 z"
           id="path21"
           inkscape:connector-curvature="0"
           style="fill:#f9b1b1" />
      </g>
      <g
         id="g27">
        <path
           d="m 209.334,364.709 h -6.812 c -4.143,0 -7.5,-3.358 -7.5,-7.5 0,-4.142 3.357,-7.5 7.5,-7.5 h 6.812 c 4.143,0 7.5,3.358 7.5,7.5 0,4.142 -3.357,7.5 -7.5,7.5 z"
           id="path25"
           inkscape:connector-curvature="0"
           style="fill:#f9b1b1" />
      </g>
      <g
         id="g31">
        <path
           d="m 139.377,255.487 h -6.562 c -4.143,0 -7.5,-3.358 -7.5,-7.5 0,-4.142 3.357,-7.5 7.5,-7.5 h 6.562 c 4.143,0 7.5,3.358 7.5,7.5 0,4.142 -3.357,7.5 -7.5,7.5 z"
           id="path29"
           inkscape:connector-curvature="0"
           style="fill:#ee6161" />
      </g>
      <g
         id="g35">
        <path
           d="m 272.584,124.27 h -9.132 c -4.143,0 -7.5,-3.358 -7.5,-7.5 0,-4.142 3.357,-7.5 7.5,-7.5 h 9.132 c 4.143,0 7.5,3.358 7.5,7.5 0,4.142 -3.357,7.5 -7.5,7.5 z"
           id="path33"
           inkscape:connector-curvature="0"
           style="fill:#f9b1b1" />
      </g>
      <g
         id="g39">
        <path
           d="m 332.561,340.294 h -10.084 c -4.143,0 -7.5,-3.358 -7.5,-7.5 0,-4.142 3.357,-7.5 7.5,-7.5 h 10.084 c 4.143,0 7.5,3.358 7.5,7.5 0,4.142 -3.358,7.5 -7.5,7.5 z"
           id="path37"
           inkscape:connector-curvature="0"
           style="fill:#ee6161" />
      </g>
    </g>
    <ellipse
       cx="191.541"
       cy="176.377"
       rx="51.653999"
       ry="43.139"
       transform="matrix(0.785,-0.619,0.619,0.785,-68.073,156.437)"
       id="ellipse43"
       style="fill:#ee6161" />
  </g>
</svg>
